<?xml version="1.0" standalone="no"?>
<!DOCTYPE svg PUBLIC "-//W3C//DTD SVG 20010904//EN"
 "http://www.w3.org/TR/2001/REC-SVG-20010904/DTD/svg10.dtd">
<svg version="1.0" xmlns="http://www.w3.org/2000/svg"
 width="104.000000pt" height="114.000000pt" viewBox="0 0 174.000000 184.000000"
 preserveAspectRatio="xMidYMid meet">

<g transform="translate(0.000000,184.000000) scale(0.100000,-0.100000)"
fill="#000000" stroke="none">
<path d="M530 900 l0 -490 110 0 109 0 7 35 c3 20 4 39 1 42 -4 3 -30 -4 -60
-16 -52 -21 -91 -20 -84 3 2 6 38 23 81 37 43 15 81 31 85 35 4 5 25 55 47
112 28 74 44 102 56 102 31 0 29 -19 -12 -104 -22 -47 -40 -88 -40 -92 0 -7
89 2 114 12 8 3 35 58 61 122 53 128 68 153 86 135 8 -8 -2 -40 -40 -121 -28
-61 -51 -114 -51 -119 0 -4 25 -6 55 -5 45 3 55 1 55 -12 0 -12 -10 -16 -42
-16 -74 0 -86 -7 -108 -66 -32 -88 -37 -84 105 -84 l125 0 0 490 0 490 -330 0
-330 0 0 -490z"/>
<path d="M830 507 c-15 -8 -29 -27 -36 -55 l-13 -42 63 0 63 0 15 55 15 55
-41 0 c-22 0 -52 -6 -66 -13z"/>
</g>
</svg>
